# xmcd
#
# Track frame offsets:
#	150
#	11935
#	30608
#	46424
#	66975
#	85052
#	104629
#	121141
#	143644
#	155640
#
# Disc length: 2283 seconds
# Revision: 0
# Processed by: cddbd v1.5.2PL0 Copyright (c) Steve Scherf et al.
# Submitted via: dBpowerAMP V12.0
#
DISCID=8608e90a
DTITLE=Murphy Platero and Morning Star Band - When Shall It Be
DYEAR=2000
DGENRE=Blues
TTITLE0=His Helping Hands
TTITLE1=When Shall It Be
TTITLE2=We Need Jesus
TTITLE3=He's Good
TTITLE4=Heaven's Mine
TTITLE5=I've Been Changed
TTITLE6=We Are Servants
TTITLE7=No Regrets
TTITLE8=There's No Other Way
TTITLE9=Morning Star
EXTD=
EXTT0=
EXTT1=
EXTT2=
EXTT3=
EXTT4=
EXTT5=
EXTT6=
EXTT7=
EXTT8=
EXTT9=
PLAYORDER=
